# xmcd CD database file
#
# Track frame offsets:
#	150
#	9727
#	23802
#	39482
#	53285
#	69782
#	81180
#	91815
#	105177
#	126487
#
# Disc length: 1964 seconds
#
# Revision: 5
# Processed by: cddbd v1.5.2PL0 Copyright (c) Steve Scherf et al.
# Submitted via: CDex 1.51
#
DISCID=6a07aa0a
DTITLE=Johnny Cash - Ultimate Christmas Collection Disc 1
DYEAR=1980
DGENRE=Country
TTITLE0=Joy to the World
TTITLE1=Away in a Manger
TTITLE2=O Little Town of Bethlehem
TTITLE3=Silent Night, Holy Night
TTITLE4=It Came Upon the Midnight Clear
TTITLE5=Hark! the Herald Angels Sing
TTITLE6=I Heard the Bells on Christmas Day
TTITLE7=O Come All Ye Faithful
TTITLE8=Little Gray Donkey
TTITLE9=The Christmas Guest
EXTD=Originally released as JC 36866 on Columbia Records/ p 1980 - rerelease 1991\nAlso re-released in 2005 as Ultimate Christmas Collection CD1 - MEG2 51530 YEAR: 1980
EXTT0=
EXTT1=
EXTT2=
EXTT3=
EXTT4=
EXTT5=
EXTT6=
EXTT7=
EXTT8=
EXTT9=
PLAYORDER=
